# xmcd
#
# Track frame offsets:
#	150
#	15669
#	36442
#	52841
#	72296
#	86216
#	88570
#	101171
#	112742
#	127861
#	147061
#	162675
#	183536
#	201624
#	209141
#	224150
#	239764
#	257350
#	293243
#	356244
#
# Disc length: 4750 seconds
#
# Revision: 1
# Processed by: cddbd v1.5.1PL0 Copyright (c) Steve Scherf et al.
# Submitted via: audiograbber 1.83.01
#
DISCID=43128c14
DTITLE=Soulfingers - ...No Fingers Like Soulfingers
DYEAR=2004
DGENRE=Soul
TTITLE0=Wild Thing
TTITLE1=Keep Feeling Fascination
TTITLE2=Hey Baby
TTITLE3=Vengo Anch'lo No Tu No
TTITLE4=Will It Go 'round In Circles
TTITLE5=Foot Massage
TTITLE6=Nothing From Nothing
TTITLE7=Memphis Train
TTITLE8=Turn On Your Lovelight
TTITLE9=B.I.L.Y.
TTITLE10=We're Gonna Make It
TTITLE11=That's Life (The Thrillogy)
TTITLE12=Walking By Myself
TTITLE13=What'd I Say (SLOW)
TTITLE14=What'd I Say (FINALE)
TTITLE15=Santa Claus Is Coming To Town
TTITLE16=Fever
TTITLE17=Do You Love Me
TTITLE18=nista
TTITLE19=nista
EXTD=
EXTT0=
EXTT1=
EXTT2=
EXTT3=
EXTT4=
EXTT5=
EXTT6=
EXTT7=
EXTT8=
EXTT9=
EXTT10=
EXTT11=
EXTT12=
EXTT13=
EXTT14=
EXTT15=
EXTT16=
EXTT17=
EXTT18=
EXTT19=
PLAYORDER=
